<?xml version="1.0" ?><svg viewBox="0 0 64 64" xmlns="http://www.w3.org/2000/svg"><title/><path d="M32,56c-6.571,0-7.345-.025-9.914-.144a17.44,17.44,0,0,1-5.846-1.1,12.215,12.215,0,0,1-7-7,17.284,17.284,0,0,1-1.1-5.841c-.061-1.292-.1-2.159-.118-3.6C8.006,36.987,8,35.167,8,32c0-6.58.025-7.352.144-9.916a17.422,17.422,0,0,1,1.1-5.843,12.218,12.218,0,0,1,7-7,17.284,17.284,0,0,1,5.841-1.1C24.642,8.025,25.427,8,32,8s7.351.025,9.915.144a17.423,17.423,0,0,1,5.844,1.1,12.217,12.217,0,0,1,7,7,17.272,17.272,0,0,1,1.1,5.841c0,.615.008,1.281.016,1.993a75.908,75.908,0,0,1-.253,8.907C55.34,35.45,54.6,42,48,42c-.289,0-.606.011-.943.021-2.153.067-5.409.174-7.641-1.987a8.067,8.067,0,0,1-2.142-6.042l0-.1.476-9.437c-.3-.056-.607-.105-.922-.152a23.713,23.713,0,0,0-3.3-.3,6.637,6.637,0,0,0-5.224,2.119A8.351,8.351,0,0,0,26,32.04a7.336,7.336,0,0,0,1.614,4.768c.438.531,1.267,1.239,3.386,1.239a2.313,2.313,0,0,0,.912-.128A2,2,0,0,1,33.4,41.634a6.212,6.212,0,0,1-2.4.413,7.941,7.941,0,0,1-6.473-2.7A11.289,11.289,0,0,1,22,32.04,12.343,12.343,0,0,1,25.375,23.4,10.655,10.655,0,0,1,33.534,20a27.117,27.117,0,0,1,3.873.344,26.836,26.836,0,0,1,2.938.59l1.569.413L41.274,34.04a4.311,4.311,0,0,0,.925,3.121c1.015.981,3.072.917,4.729.862C47.311,38.011,47.672,38,48,38c1.715,0,3.071-.4,3.644-5.465a72.8,72.8,0,0,0,.228-8.412c-.008-.729-.016-1.41-.016-2.019a13.4,13.4,0,0,0-.839-4.447,8.183,8.183,0,0,0-4.672-4.673,13.534,13.534,0,0,0-4.545-.843C39.242,12.024,38.489,12,32,12s-7.251.024-9.8.142a13.573,13.573,0,0,0-4.54.842,8.182,8.182,0,0,0-4.672,4.672,13.53,13.53,0,0,0-.843,4.545C12.024,24.757,12,25.51,12,32c0,3.138.006,4.94.025,6.256.02,1.395.056,2.232.116,3.548a13.573,13.573,0,0,0,.842,4.54,8.183,8.183,0,0,0,4.672,4.671,13.517,13.517,0,0,0,4.546.844c2.563.117,3.316.142,9.8.142,6.365,0,8.862-.137,8.887-.139a13.74,13.74,0,0,0,4.66-.855A8.181,8.181,0,0,0,50.2,46.318a2,2,0,1,1,3.732,1.439,12.2,12.2,0,0,1-6.973,6.989,17.609,17.609,0,0,1-5.938,1.111C41.011,55.861,38.511,56,32,56Z"/></svg>